<mxfile host="app.diagrams.net" modified="2020-11-03T10:56:16.187Z" agent="5.0 (Windows)" etag="odvWcEJ8OwmWbiaYH9w1" version="13.8.8" type="github">
  <diagram id="VAAiEscxtQo0bk0bTV3w" name="Page-1">
    <mxGraphModel dx="1021" dy="1151" grid="1" gridSize="10" guides="1" tooltips="1" connect="1" arrows="1" fold="1" page="1" pageScale="1" pageWidth="827" pageHeight="1169" math="0" shadow="0">
      <root>
        <mxCell id="0" />
        <mxCell id="1" parent="0" />
        <mxCell id="Oe0Cpm9dLsxle230rjnb-1" value="&lt;div align=&quot;left&quot;&gt;&lt;b&gt;Grammatik:&lt;/b&gt;&lt;/div&gt;&lt;div align=&quot;left&quot;&gt;&lt;b&gt;&lt;br&gt;&lt;/b&gt;&lt;/div&gt;&lt;div&gt;FSM&lt;/div&gt;&lt;div&gt;:event_declaration state_declaration&lt;br&gt;&lt;/div&gt;&lt;div&gt;:&lt;/div&gt;&lt;div&gt;&lt;br&gt;&lt;/div&gt;&lt;div&gt;event_declarations&lt;/div&gt;&lt;div&gt;:&quot;event&quot; id_list &quot;;&quot;&lt;/div&gt;&lt;div&gt;:&lt;/div&gt;&lt;div&gt;&lt;br&gt;&lt;/div&gt;&lt;div&gt;id_list&lt;/div&gt;&lt;div&gt;:ID id_list2&lt;/div&gt;&lt;div&gt;:&lt;/div&gt;&lt;div&gt;&lt;br&gt;&lt;/div&gt;&lt;div&gt;id_list2&lt;/div&gt;&lt;div&gt;:&lt;/div&gt;&lt;div&gt;|&quot;,&quot; id_list&lt;/div&gt;&lt;div&gt;:&lt;/div&gt;&lt;div&gt;&lt;br&gt;&lt;/div&gt;&lt;div&gt;state_transitions&lt;/div&gt;&lt;div&gt;:&lt;br&gt;&lt;/div&gt;" style="whiteSpace=wrap;html=1;aspect=fixed;align=left;" vertex="1" parent="1">
          <mxGeometry x="40" y="20" width="510" height="510" as="geometry" />
        </mxCell>
      </root>
    </mxGraphModel>
  </diagram>
</mxfile>
